<svg height="215" viewBox="0 0 783 215" width="783" xmlns="http://www.w3.org/2000/svg"><g fill="none" fill-rule="evenodd"><path d="m4.07324219 215 14.20898441-72.900391h14.4042968l-11.71875 60.205079h30.8105469l-2.4902344 12.695312zm89.99023441-25.878906c-5.5989864 0-9.7493355.846345-12.4511719 2.539062s-4.0527344 4.313134-4.0527344 7.861328c0 2.050792.6591731 3.743483 1.9775391 5.078125 1.3183659 1.334642 3.0029194 2.001953 5.0537109 2.001953 3.8411651 0 7.0637891-1.513656 9.6679688-4.541015s4.3782505-7.340467 5.3222656-12.939453zm20.7031254-5.322266-6.00586 31.201172h-14.2089842l1.2207031-6.103516c-2.1810005 2.506523-4.6793479 4.386387-7.4951171 5.639649-2.8157693 1.253261-6.0139795 1.879883-9.5947266 1.879883-4.9153892 0-8.8134622-1.42414-11.694336-4.272461-2.8808737-2.848322-4.321289-6.697567-4.321289-11.547852 0-6.998733 2.5308992-12.345359 7.5927734-16.040039 5.0618743-3.69468 12.361606-5.541992 21.8994141-5.541992h9.4238283l.390625-2.392578c.032552-.195314.056966-.382486.073242-.561524.016276-.179037.024414-.463865.024414-.854492 0-1.855478-.83007-3.271479-2.4902343-4.248047-1.6601646-.976567-4.0689946-1.464843-7.2265625-1.464843-2.6692842 0-5.6884597.463862-9.0576172 1.391601s-6.9742646 2.303051-10.8154297 4.125977l2.2949219-12.207032c3.6784038-1.269537 7.1533039-2.221676 10.4248047-2.856445 3.2715007-.634769 6.3883315-.952148 9.3505859-.952148 7.0638372 0 12.4186012 1.236966 16.0644532 3.710937 3.645851 2.473971 5.46875 6.103492 5.46875 10.888672 0 1.269538-.113931 2.766918-.341797 4.492188-.227866 1.725269-.553383 3.629546-.976562 5.71289zm63.134765-8.59375c-1.562508-1.399746-3.304027-2.433265-5.224609-3.100586-1.920583-.667321-4.085275-1.000976-6.494141-1.000976-5.403673 0-9.56216 1.432277-12.475586 4.296875-2.913426 2.864597-5.021152 7.665982-6.323242 14.404297l-4.882812 25.195312h-14.404297l10.693359-54.6875h14.306641l-1.708985 8.496094c2.01824-3.125016 4.638656-5.541984 7.861328-7.250977 3.222673-1.708993 6.770814-2.563476 10.644532-2.563476 2.018239 0 3.930655.244138 5.737304.732421 1.80665.488284 3.4261 1.171871 4.858399 2.050782zm36.572266 13.916016c-5.598987 0-9.749336.846345-12.451172 2.539062s-4.052734 4.313134-4.052734 7.861328c0 2.050792.659173 3.743483 1.977539 5.078125s3.002919 2.001953 5.053711 2.001953c3.841165 0 7.063789-1.513656 9.667968-4.541015 2.60418-3.027359 4.378251-7.340467 5.322266-12.939453zm20.703125-5.322266-6.00586 31.201172h-14.208984l1.220703-6.103516c-2.181 2.506523-4.679348 4.386387-7.495117 5.639649-2.815769 1.253261-6.013979 1.879883-9.594727 1.879883-4.915389 0-8.813462-1.42414-11.694335-4.272461-2.880874-2.848322-4.32129-6.697567-4.32129-11.547852 0-6.998733 2.5309-12.345359 7.592774-16.040039s12.361606-5.541992 21.899414-5.541992h9.423828l.390625-2.392578c.032552-.195314.056966-.382486.073242-.561524.016276-.179037.024414-.463865.024414-.854492 0-1.855478-.83007-3.271479-2.490234-4.248047-1.660165-.976567-4.068995-1.464843-7.226563-1.464843-2.669284 0-5.688459.463862-9.057617 1.391601-3.369157.927739-6.974264 2.303051-10.815429 4.125977l2.294921-12.207032c3.678404-1.269537 7.153304-2.221676 10.424805-2.856445s6.388332-.952148 9.350586-.952148c7.063837 0 12.418602 1.236966 16.064453 3.710937 3.645852 2.473971 5.46875 6.103492 5.46875 10.888672 0 1.269538-.113931 2.766918-.341797 4.492188-.227865 1.725269-.553383 3.629546-.976562 5.71289zm65.917969-23.486328-26.904297 54.6875h-18.017578l-6.78711-54.6875h13.81836l3.90625 42.871094 18.99414-42.871094zm48.583984 52.001953c-3.092463 1.367194-6.315087 2.392575-9.667969 3.076172-3.352881.683597-6.819643 1.025391-10.40039 1.025391-8.072957 0-14.208964-1.928692-18.408204-5.786133-4.199239-3.857441-6.298828-9.497033-6.298828-16.918945 0-4.589867.716139-9.033182 2.148438-13.330079 1.432299-4.296896 3.450508-8.024072 6.054687-11.18164 2.734389-3.320329 5.989565-5.867504 9.765625-7.641602 3.776061-1.774097 7.845031-2.661133 12.207032-2.661133 6.803419 0 12.255838 1.953106 16.357421 5.859375 4.101583 3.90627 6.152344 9.081999 6.152344 15.527344 0 1.464851-.105793 3.157543-.317383 5.078125-.211589 1.920583-.545245 4.231757-1.000976 6.933594h-37.060547c-.097657.553388-.170898 1.074216-.219727 1.5625-.048828.488284-.089518.97656-.12207 1.464844 0 3.222672 1.090484 5.655916 3.271484 7.299804 2.181001 1.643889 5.403625 2.465821 9.667969 2.465821 3.515643 0 7.031233-.504553 10.546875-1.513672 3.515643-1.00912 6.787094-2.473949 9.814453-4.394531zm-5.712891-30.712891c.130209-.455731.219727-.903318.268555-1.342773s.073242-.85449.073242-1.245117c0-2.766941-.83007-4.947909-2.490234-6.542969-1.660165-1.59506-3.938788-2.392578-6.835938-2.392578-3.255224 0-6.0384.960277-8.349609 2.880859-2.31121 1.920583-4.117832 4.801413-5.419922 8.642578zm47.949219 15.576172c-.130209.651045-.236002 1.245115-.317383 1.782227-.08138.537112-.12207.887043-.12207 1.049805 0 1.464851.504552 2.498369 1.513672 3.100586 1.009119.602216 2.78319.90332 5.322265.90332h13.574219l-2.197265 10.986328h-14.501954c-6.67321 0-11.393215-.911449-14.160156-2.734375s-4.15039-4.850239-4.15039-9.082031c0-.748702.081379-1.692703.24414-2.832032.162761-1.139328.390624-2.425123.683594-3.857421l9.912109-46.484375h-14.941406l2.099609-10.986328h29.199219zm54.589844-34.082031h16.308594l-3.515625 17.822266h-16.308594zm-6.591797 33.984375h16.308594l-3.417969 17.919922h-16.308594zm66.796875-33.984375h16.308594l-3.515625 17.822266h-16.308594zm-6.591797 33.984375h16.308594l-3.417969 17.919922h-16.308594zm88.671875 17.919922h-45.361328l14.0625-72.900391h45.507812l-2.490234 12.695313h-31.005859l-3.076172 15.722656h28.076172l-2.392578 12.695313h-28.076172l-3.710938 19.091797h31.00586zm67.236328-35.546875-6.884765 35.546875h-14.306641l6.494141-33.300781c.162761-.846359.28483-1.700842.36621-2.563477.081381-.862634.122071-1.733394.122071-2.612304 0-1.888031-.472001-3.328446-1.416016-4.32129-.944015-.992843-2.311189-1.489257-4.101562-1.489257-2.669284 0-4.956045 1.171863-6.860352 3.515625-1.904306 2.343761-3.279618 5.696592-4.125976 10.058593l-5.908204 30.712891h-14.30664l10.595703-54.6875h14.306641l-1.5625 8.203125c1.562507-2.994807 3.710923-5.330395 6.445312-7.006836s5.745426-2.514648 9.033203-2.514648c4.166688 0 7.373036 1.131173 9.619141 3.393554s3.36914 5.460592 3.36914 9.594727c0 .976567-.073241 2.083327-.219726 3.320312-.146485 1.236986-.36621 2.620435-.65918 4.150391zm12.402344 16.455078 6.982422-35.595703h14.208984l-6.396484 33.398438c-.162761.87891-.284831 1.741532-.366211 2.58789-.081381.846359-.12207 1.676428-.12207 2.490234 0 1.888031.472 3.344722 1.416015 4.370118.944015 1.025395 2.294913 1.538086 4.052735 1.538086 2.701836 0 4.972321-1.139312 6.811523-3.417969s3.214514-5.66404 4.125977-10.15625l5.957031-30.810547h14.208984l-10.595703 54.6875h-14.306641l1.611329-8.105469c-1.432299 2.929702-3.531888 5.249015-6.298829 6.958008-2.76694 1.708993-5.794254 2.563477-9.082031 2.563477-4.19924 0-7.421864-1.14745-9.667969-3.442383-2.246105-2.294934-3.36914-5.590799-3.36914-9.887695 0-.911463.065103-1.95312.195312-3.125.130209-1.171881.341796-2.522779.634766-4.052735zm91.796875-30.126953c1.041672-2.083344 2.604156-3.735345 4.6875-4.956055 2.083344-1.220709 4.361967-1.831054 6.835937-1.831054 2.994807 0 5.371085.911449 7.128907 2.734375 1.757821 1.822925 2.636718 4.313135 2.636718 7.470703 0 1.529955-.089517 3.084302-.268554 4.663086-.179038 1.578784-.512693 3.588855-1.000977 6.030273l-6.835937 35.107422h-11.669922l6.787109-35.107422c.325523-1.660164.553385-2.986649.683594-3.979492.130209-.992844.195312-1.733396.195312-2.22168 0-1.30209-.284827-2.294918-.854492-2.978515-.569664-.683598-1.407872-1.025391-2.514648-1.025391-1.562508 0-2.807613.732415-3.735352 2.197266s-1.749671 4.134095-2.46582 8.007812l-6.787109 35.107422h-11.71875l6.884765-35.107422c.260418-1.367194.463867-2.587885.610352-3.662109s.219726-1.92057.219726-2.539063c0-1.30209-.292966-2.294918-.878906-2.978515-.58594-.683598-1.432286-1.025391-2.539062-1.025391-1.529956 0-2.742509.708001-3.637696 2.124023-.895187 1.416023-1.717118 4.109681-2.46582 8.081055l-6.787109 35.107422h-11.71875l10.595703-54.6875h10.40039l-1.074218 5.664062c1.334642-2.213552 2.986643-3.930657 4.956054-5.151367 1.969411-1.220709 4.077137-1.831054 6.323242-1.831054s4.077142.610345 5.493165 1.831054c1.416022 1.22071 2.25423 2.872711 2.514648 4.956055z" fill="#a483f7" fill-rule="nonzero"/><g transform="translate(177)"><circle cx="118" cy="58" fill="#b283f7" r="26" stroke="#202020" stroke-opacity=".093996" stroke-width="4"/><path d="m193 32h42v52h-42z" fill="#9483f7" stroke="#202020" stroke-opacity=".093996" stroke-width="4"/><path d="m310 34.472136-24.763932 49.527864h49.527864z" fill="#83bdf7" stroke="#202020" stroke-opacity=".093996" stroke-width="4"/><g fill="#a483f7" fill-rule="nonzero"><path d="m162.387695 82.4238281h9.140625v7.7636719l-6.503906 12.626953-5.859375.029297 3.222656-12.65625z"/><path d="m258.387695 82.4238281h9.140625v7.7636719l-6.503906 12.626953-5.859375.029297 3.222656-12.65625z"/><path d="m80.7880859 95.4902344v7.0312496h-3.125c-8.1055092 0-13.5335149-1.204415-16.2841797-3.6132809-2.7506647-2.4088662-4.1259765-7.2102505-4.1259765-14.4042969v-9.765625c0-3.5481948-1.0009666-6.60806-3.0029297-9.1796874-2.0019631-2.5716275-5.1025181-3.8574219-9.3017578-3.8574219h-5.9570313v-6.9824219h5.9570313c4.5898667 0 7.7880769-1.0904839 9.5947266-3.2714844 1.8066496-2.1810005 2.7099609-5.3873486 2.7099609-9.6191406v-12.6953125c0-7.1940464 1.3753118-11.9872927 4.1259765-14.3798828 2.7506648-2.3925901 8.1786705-3.5888672 16.2841797-3.5888672h3.125v6.9824219h-3.4179687c-4.5573145 0-7.5276624.7080007-8.9111328 2.1240234-1.3834705 1.4160227-2.0751953 4.4351983-2.0751953 9.0576172v13.0859375c0 5.7291953-1.1230357 9.5784407-3.3691407 11.5478516-2.2461049 1.9694109-6.6243164 3.3935503-13.1347656 4.2724609 6.3151358.7487017 10.6445195 2.1891169 12.9882813 4.3212891 2.3437617 2.1321721 3.515625 5.9814174 3.515625 11.5478515v10.2050782c0 4.6549711.6917248 7.6822846 2.0751953 9.0820312 1.3834704 1.3997466 4.3538183 2.0996094 8.9111328 2.0996094z"/><path d="m352.508789 95.4902344c4.557315 0 7.527662-.6998628 8.911133-2.0996094 1.38347-1.3997466 2.075195-4.4270601 2.075195-9.0820312v-10.2050782c0-5.5664341 1.171863-9.4156794 3.515625-11.5478515 2.343762-2.1321722 6.673146-3.5725874 12.988281-4.3212891-6.510449-.8789106-10.88866-2.30305-13.134765-4.2724609s-3.369141-5.8186563-3.369141-11.5478516v-13.0859375c0-4.6224189-.691725-7.6415945-2.075195-9.0576172-1.383471-1.4160227-4.353818-2.1240234-8.911133-2.1240234h-3.417969v-6.9824219h3.125c8.10551 0 13.533515 1.1962771 16.28418 3.5888672s4.125977 7.1858364 4.125977 14.3798828v12.6953125c0 4.231792.903311 7.4381401 2.709961 9.6191406 1.806649 2.1810005 5.004859 3.2714844 9.594726 3.2714844h5.957031v6.9824219h-5.957031c-4.19924 0-7.299795 1.2857944-9.301758 3.8574219-2.001963 2.5716274-3.002929 5.6314926-3.002929 9.1796874v9.765625c0 7.1940464-1.375312 11.9954307-4.125977 14.4042969-2.750665 2.4088659-8.17867 3.6132809-16.28418 3.6132809h-3.125v-7.0312496z"/></g></g></g></svg>